<!-- Generated by IcoMoon.io -->
<svg version="1.1" xmlns="http://www.w3.org/2000/svg" width="32" height="32" viewBox="0 0 32 32">
<title>icon__walk</title>
<path d="M20.344 27.952c-0.126-0.443-0.256-0.901-0.319-1.354-0.399-2.864-1.417-5.491-3.025-7.81-0.107-0.154-0.143-0.478-0.082-0.738 0.389-1.656 0.806-3.336 1.209-4.96 0.134-0.542 0.269-1.084 0.402-1.626 0.339-1.375-0.178-2.565-1.258-2.893-0.695-0.211-1.31-0.314-1.88-0.314-0.77 0-1.473 0.194-2.089 0.578-1.485 0.924-2.814 1.798-4.063 2.67-0.39 0.273-0.75 0.707-0.963 1.163-0.398 0.851-0.764 1.732-1.118 2.584-0.169 0.407-0.344 0.827-0.52 1.239-0.206 0.481-0.232 0.962-0.074 1.354 0.13 0.323 0.376 0.569 0.71 0.71 0.192 0.082 0.387 0.123 0.577 0.123 0.584 0 1.089-0.385 1.385-1.058l0.157-0.357c0.396-0.9 0.805-1.83 1.224-2.737 0.119-0.258 0.244-0.429 0.37-0.507 0.576-0.355 1.155-0.681 1.824-1.057 0.139-0.079 0.282-0.159 0.428-0.241-0.093 0.436-0.185 0.863-0.275 1.283-0.272 1.271-0.528 2.472-0.796 3.676-0.242 1.092-0.033 1.97 0.64 2.682l0.479 0.507c0.765 0.808 1.556 1.644 2.316 2.481 0.177 0.194 0.314 0.452 0.368 0.688 0.272 1.182 0.532 2.388 0.784 3.555 0.114 0.528 0.228 1.056 0.343 1.584 0.175 0.802 0.882 1.384 1.681 1.384 0 0 0 0 0 0 0.125 0 0.25-0.015 0.371-0.045 0.482-0.118 0.881-0.41 1.123-0.821s0.303-0.899 0.173-1.375c-0.034-0.123-0.069-0.246-0.104-0.369zM12.706 21.425c-0.209-0.214-0.424-0.436-0.648-0.668l-0.24-0.249-0.077 0.338c-0.032 0.138-0.061 0.254-0.087 0.357-0.049 0.195-0.088 0.348-0.105 0.508-0.153 1.452-0.687 2.647-1.632 3.656-0.437 0.466-0.822 0.988-1.195 1.493-0.171 0.232-0.348 0.471-0.527 0.701-0.399 0.513-0.575 1.043-0.51 1.534 0.056 0.424 0.294 0.805 0.686 1.102 0.321 0.242 0.665 0.365 1.021 0.365 0 0 0 0 0 0 0.551 0 1.092-0.307 1.523-0.866 0.226-0.294 0.451-0.596 0.669-0.888 0.446-0.599 0.908-1.219 1.401-1.79 0.846-0.98 1.33-1.995 1.48-3.102 0.036-0.266-0.028-0.649-0.219-0.864-0.481-0.541-0.995-1.068-1.539-1.626zM17.471 7.403c0.016 0 0.032 0 0.049 0 0 0 0 0 0 0 1.671 0 2.996-1.289 3.017-2.934 0.010-0.787-0.3-1.541-0.873-2.122-0.568-0.576-1.343-0.908-2.127-0.91h-0.008c-1.641 0-2.94 1.3-2.957 2.96-0.008 0.81 0.283 1.563 0.821 2.121s1.277 0.873 2.079 0.884zM24.344 13.951c-0.272-0.084-0.551-0.162-0.82-0.238-0.492-0.139-1.001-0.282-1.482-0.463-0.309-0.116-0.637-0.354-0.877-0.635-0.301-0.352-0.573-0.746-0.86-1.163-0.13-0.188-0.263-0.382-0.408-0.584l-0.237-0.332-0.098 0.396c-0.064 0.259-0.116 0.501-0.165 0.734-0.102 0.477-0.19 0.89-0.346 1.273-0.397 0.978-0.175 1.773 0.68 2.43 0.231 0.177 0.48 0.358 0.756 0.442 0.726 0.222 1.469 0.429 2.188 0.629 0.291 0.081 0.582 0.162 0.873 0.244 0.196 0.055 0.387 0.084 0.568 0.084 0 0 0 0 0 0 0.67 0 1.167-0.375 1.363-1.030 0.231-0.775-0.235-1.51-1.135-1.788z"></path>
</svg>
