<!-- Generated by IcoMoon.io -->
<svg version="1.1" xmlns="http://www.w3.org/2000/svg" width="32" height="32" viewBox="0 0 32 32">
<title>icon__bus_urban</title>
<path d="M29.451 8.246c-0.001-0.731-0.375-1.104-1.111-1.107-0.113-0-0.226-0.001-0.34-0.001l-0.411 0c0-0.113 0.001-0.225 0.001-0.336 0.002-0.412 0.004-0.802-0.006-1.199l-0.001-0.047c-0.008-0.328-0.016-0.668-0.094-0.996-0.222-0.938-0.711-1.726-1.415-2.279-0.702-0.551-1.586-0.843-2.554-0.843-5.011-0.002-10.022-0.001-15.033 0.002-0.238 0-0.492 0.019-0.775 0.059-1.641 0.228-3.063 1.671-3.236 3.285-0.056 0.52-0.057 1.050-0.057 1.562-0 0.226-0.001 0.46-0.006 0.688-0.001 0.035-0.001 0.069-0.001 0.105-0.049-0-0.097-0-0.145-0-0.232-0.001-0.452-0.002-0.671 0.002-0.662 0.010-1.042 0.393-1.044 1.052-0.005 1.386-0.005 2.797-0 4.195 0.002 0.667 0.391 1.052 1.067 1.055 0.121 0.001 0.241 0.001 0.363 0.001l0.431-0 0 1.326c0 2.523 0 5.132-0.006 7.697-0 0.056-0.039 0.145-0.089 0.203-0.371 0.428-0.557 0.869-0.569 1.349l-0.001 0.043c-0.014 0.585-0.029 1.19 0.007 1.786 0.045 0.733 0.415 1.314 1.1 1.728 0.332 0.201 0.712 0.298 1.191 0.306v0.1c0 0.17-0 0.34-0.001 0.51-0.001 0.389-0.001 0.792 0.002 1.188 0.004 0.558 0.328 0.879 0.889 0.881 0.864 0.003 1.729 0.003 2.593-0 0.552-0.002 0.873-0.317 0.88-0.865 0.005-0.402 0.004-0.809 0.003-1.204-0.001-0.173-0.001-0.346-0.001-0.519v-0.078h11.175c0.001 0.024 0.002 0.048 0.002 0.072 0 0.2-0 0.399-0 0.599-0.001 0.368-0.002 0.748 0.003 1.123 0.006 0.552 0.325 0.87 0.873 0.872 0.44 0.002 0.879 0.003 1.319 0.003 0.433 0 0.866-0.001 1.298-0.003 0.55-0.003 0.868-0.321 0.872-0.873 0.003-0.401 0.003-0.808 0.002-1.202-0-0.173-0.001-0.346-0.001-0.519v-0.082l0.134-0.007c1.223-0.065 2.114-0.955 2.169-2.165 0.021-0.464 0.013-0.933 0.006-1.388l-0.003-0.202c-0.008-0.55-0.212-1.049-0.607-1.485-0.030-0.033-0.061-0.121-0.061-0.21-0.005-2.545-0.005-5.132-0.005-7.634l0-1.349 0.411 0c0.119 0 0.235-0 0.352-0 0.718-0.002 1.098-0.381 1.099-1.096 0.002-1.255 0.002-2.596 0-4.101zM24.88 16.635c0 0.060-0.004 0.090-0.008 0.104-0.014 0.003-0.044 0.008-0.103 0.008-0 0-0 0-0 0-1.502-0.006-2.963-0.007-4.193-0.007l-3.338 0.001v-8.904h7.637l-0 1.879c-0 2.268-0.001 4.613 0.006 6.919zM21.666 19.936c0.027-0.458 0.35-0.762 0.822-0.774 0.099-0.003 0.198-0.003 0.296-0.003 0.083 0 0.166 0.001 0.248 0.001 0.168 0.001 0.335 0.001 0.502 0 0.181-0.001 0.363-0.003 0.544 0.002 0.481 0.013 0.812 0.342 0.826 0.818 0.009 0.341 0.009 0.702 0 1.073-0.012 0.483-0.34 0.814-0.816 0.824-0.538 0.011-1.082 0.011-1.617-0-0.454-0.009-0.777-0.316-0.805-0.764-0.024-0.386-0.024-0.782-0.001-1.177zM11.313 4.149c0.155-0.227 0.413-0.36 0.708-0.363 0.317-0.004 0.659-0.006 1.077-0.006 0.261 0 0.522 0.001 0.783 0.001s0.523 0.001 0.784 0.001h1.422c0.372 0 0.744-0 1.116-0.001s0.744-0.001 1.116-0.001c0.638 0 1.159 0.001 1.639 0.004 0.306 0.002 0.573 0.133 0.731 0.362 0.147 0.212 0.177 0.48 0.083 0.734-0.11 0.298-0.325 0.471-0.656 0.528-0.074 0.013-0.154 0.014-0.25 0.014-2.576 0.001-5.151 0.001-7.727 0-0.322-0-0.739-0.090-0.903-0.52-0.099-0.26-0.071-0.535 0.078-0.755zM7.124 16.741c-0.002-0.012-0.004-0.032-0.003-0.060 0.006-2.259 0.006-4.556 0.006-6.777v-2.032c0-0.012 0-0.024 0.001-0.036h7.645v8.903c-0.026 0.001-0.051 0.002-0.075 0.002l-2.456 0c-1.694 0-3.354 0-5.038 0.004-0.040 0-0.065-0.002-0.079-0.004zM10.339 21.075c-0.022 0.481-0.351 0.797-0.837 0.804-0.539 0.008-1.067 0.008-1.572-0-0.487-0.008-0.823-0.341-0.834-0.829-0.008-0.337-0.008-0.69-0-1.051 0.011-0.487 0.345-0.823 0.831-0.836 0.099-0.003 0.197-0.003 0.296-0.003 0.083 0 0.166 0.001 0.249 0.001 0.162 0.001 0.324 0.001 0.486 0 0.179-0.001 0.359-0.002 0.538 0.002 0.496 0.010 0.819 0.317 0.843 0.801 0.018 0.36 0.018 0.734 0 1.112z"></path>
</svg>
