<!-- Generated by IcoMoon.io -->
<svg version="1.1" xmlns="http://www.w3.org/2000/svg" width="32" height="32" viewBox="0 0 32 32">
<title>icon__train</title>
<path d="M28.263 7.302c-0.020-2.14-1.076-3.727-2.973-4.467-1.077-0.42-2.235-0.663-3.355-0.899-0.457-0.096-0.93-0.195-1.389-0.305-0.256-0.061-0.518-0.1-0.771-0.137-0.116-0.017-0.231-0.034-0.346-0.053l-0.015-0.003-6.666 0.002c-0.346 0.057-0.702 0.104-1.047 0.15-0.791 0.105-1.609 0.214-2.385 0.444-1.195 0.356-2.549 0.759-3.549 1.535-0.633 0.491-1.063 1.235-1.478 1.954-0.178 0.308-0.361 0.625-0.556 0.914l-0.032 0.048v16.544l0.010 0.030c0.471 1.369 0.956 2.561 2.115 3.285 0.63 0.394 1.332 0.695 2.075 1.013 0.274 0.117 0.555 0.238 0.847 0.369-0.073 0.059-0.148 0.119-0.226 0.181-0.402 0.32-0.818 0.652-1.176 1.054-0.231 0.26-0.345 0.602-0.457 0.933-0.048 0.144-0.094 0.279-0.148 0.408l-0.11 0.26h3.789l0.056-0.085c0.007-0.011 0.014-0.023 0.021-0.035 0.003-0.005 0.006-0.011 0.009-0.016 0.307-0.303 0.602-0.657 0.887-0.998 0.619-0.741 1.258-1.508 2.011-1.732 0.593-0.177 1.274-0.259 2.143-0.259 0.501 0 1.021 0.027 1.524 0.052 0.507 0.026 1.032 0.053 1.541 0.053l0.067-0c0.173 0 0.273 0.036 0.295 0.059 0.723 0.748 1.447 1.519 2.147 2.265 0.199 0.212 0.399 0.425 0.598 0.637l0.056 0.059h3.579l-0.11-0.26c-0.054-0.129-0.1-0.264-0.149-0.407-0.112-0.328-0.227-0.667-0.451-0.932-0.326-0.386-0.705-0.71-1.145-1.084-0.113-0.096-0.227-0.194-0.345-0.296 0.073-0.017 0.143-0.033 0.208-0.048 0.286-0.066 0.512-0.118 0.733-0.172 2.429-0.595 4.142-2.673 4.166-5.053 0.049-4.81 0.049-9.719 0-15.008zM7.106 22.096c-0.012-0.556 0.197-1.084 0.588-1.488s0.911-0.629 1.466-0.635l0.022-0c1.146 0 2.079 0.931 2.080 2.076 0 0.55-0.217 1.071-0.614 1.467s-0.916 0.614-1.465 0.614h-0l-0.020-0c-1.111-0.011-2.034-0.923-2.057-2.034zM14.217 7.915v5.56h-7.073v-5.56h7.073zM22.802 19.974l0.025 0c0.554 0.007 1.075 0.234 1.466 0.639s0.599 0.933 0.587 1.486c-0.026 1.143-0.998 2.069-2.148 2.032-1.11-0.037-2.010-0.972-2.008-2.084 0.002-1.143 0.934-2.073 2.078-2.073zM24.866 7.925v5.542h-7.104v-5.542h7.104z"></path>
</svg>
