<!-- Generated by IcoMoon.io -->
<svg version="1.1" xmlns="http://www.w3.org/2000/svg" width="32" height="32" viewBox="0 0 32 32">
<title>icon__bike_bike</title>
<path d="M30.74 18.078c-0.040-0.155-0.075-0.319-0.11-0.477l-0.005-0.023c-0.084-0.391-0.172-0.796-0.335-1.185-0.894-2.121-2.518-3.398-4.827-3.795-0.334-0.057-0.674-0.087-1.010-0.087-0.631 0-1.268 0.102-1.899 0.304l-0.553-1.069c-0.645-1.248-1.312-2.538-1.962-3.809-0.183-0.358-0.432-0.602-0.759-0.745l-0.087-0.038h-2.73l-0.136 0.152c-0.025 0.028-0.061 0.062-0.102 0.099-0.129 0.12-0.289 0.268-0.36 0.497-0.094 0.298-0.049 0.606 0.123 0.845 0.191 0.267 0.519 0.424 0.897 0.432 0.226 0.005 0.462 0.007 0.722 0.007 0.234 0 0.481-0.002 0.791-0.006 0.358 0.709 0.728 1.42 1.050 2.036-0.985 1.386-1.981 2.796-2.946 4.16l-0.006 0.008c-0.206 0.292-0.413 0.584-0.619 0.876l-1.052-3.699c0.047 0.005 0.093 0.008 0.14 0.008 0.59-0 1.051-0.415 1.121-1.008 0.069-0.586-0.306-1.051-1.003-1.243-1.013-0.28-2.036-0.29-3.026-0.301l-0.081-0.001c-0.65 0-1.15 0.465-1.163 1.083-0.014 0.656 0.432 1.123 1.117 1.163 0.231 0.013 0.47 0.026 0.713 0.026 0.34 1.212 0.693 2.449 1.006 3.543l0.38 1.332c0.044 0.156 0.088 0.311 0.131 0.468h-0.458c-0.267-1.418-1-2.693-2.083-3.613-1.143-0.971-2.607-1.505-4.12-1.505-0.217 0-0.436 0.011-0.652 0.033-3.12 0.317-5.526 2.909-5.599 6.028-0.072 3.107 2.26 5.776 5.425 6.207 0.303 0.041 0.608 0.062 0.904 0.062 1.228-0 2.382-0.354 3.429-1.052 1.469-0.979 2.374-2.36 2.692-4.107 0.128-0 0.256-0 0.384-0.001l0.471-0c0.287 0 0.521 0.001 0.738 0.003h0.011c0.422 0 0.777-0.186 1.026-0.539 1.388-1.966 2.777-3.932 4.167-5.899l0.251 0.487c-1.39 1.039-2.213 2.39-2.445 4.017-0.332 2.331 0.44 4.264 2.296 5.743 1.123 0.895 2.393 1.349 3.775 1.349 0.377 0 0.766-0.035 1.155-0.103 2.304-0.404 3.919-1.705 4.799-3.866 0.148-0.364 0.229-0.741 0.308-1.106 0.031-0.146 0.067-0.311 0.106-0.467l0.014-0.055v-1.115l-0.014-0.056zM23.082 19.388c0.197 0.388 0.537 0.671 0.955 0.797 0.142 0.043 0.29 0.064 0.439 0.064 0.726 0 1.375-0.505 1.543-1.2 0.102-0.421 0.027-0.855-0.211-1.222-0.233-0.359-0.603-0.611-1.020-0.697-0.38-0.72-0.746-1.431-1.133-2.182l-0.041-0.080c0.284-0.065 0.583-0.099 0.88-0.099 1.501 0 2.859 0.805 3.545 2.101 0.488 0.923 0.596 1.958 0.305 2.914s-0.962 1.774-1.889 2.301c-0.588 0.334-1.258 0.511-1.94 0.511-1.427-0-2.773-0.76-3.514-1.984-0.499-0.824-0.65-1.814-0.425-2.788 0.187-0.807 0.617-1.522 1.225-2.048l0.113 0.219c0.359 0.692 0.73 1.408 1.084 2.116 0.002 0.009 0.002 0.023 0.001 0.032-0.144 0.415-0.114 0.857 0.084 1.245zM8.785 17.65l-0.005 0c-0.087 0-0.092-0.006-0.128-0.045-0.299-0.323-0.7-0.501-1.131-0.501-0.436 0-0.848 0.181-1.161 0.509-0.289 0.303-0.438 0.701-0.42 1.122 0.018 0.435 0.211 0.835 0.541 1.127 0.278 0.246 0.639 0.382 1.017 0.382 0.467 0 0.915-0.202 1.231-0.555 0.482-0.004 1-0.006 1.663-0.006 0.329 0 0.658 0 0.987 0.001h0.018c-0.174 0.694-0.598 1.367-1.197 1.888-0.745 0.647-1.701 1.019-2.624 1.019-0.046 0-0.091-0.001-0.137-0.003-1.080-0.042-2.078-0.466-2.81-1.192-0.728-0.723-1.128-1.684-1.127-2.707 0.001-1.014 0.387-1.971 1.085-2.693 0.678-0.701 1.587-1.131 2.562-1.211 0.123-0.010 0.247-0.015 0.369-0.015 2.061 0 3.468 1.422 3.864 2.876l-0.611-0c-0.199-0-0.399-0-0.598-0-0.547-0-0.974 0.001-1.387 0.004z"></path>
</svg>
